<svg width="4" height="4" viewBox="0 0 4 4" fill="none" xmlns="http://www.w3.org/2000/svg">
<g clip-path="url(#clip0_927_97)">
<path d="M3.99233 0.923828L2.58933 2.32683C2.4329 2.48287 2.22096 2.5705 2 2.5705C1.77904 2.5705 1.5671 2.48287 1.41067 2.32683L0.00766667 0.923828C0.00533333 0.950161 0 0.973995 0 1.00016V3.00016C0.000264643 3.22109 0.088147 3.4329 0.24437 3.58913C0.400593 3.74535 0.612401 3.83323 0.833333 3.83349H3.16667C3.3876 3.83323 3.59941 3.74535 3.75563 3.58913C3.91185 3.4329 3.99974 3.22109 4 3.00016V1.00016C4 0.973995 3.99467 0.950161 3.99233 0.923828Z" fill="#0257F5"/>
<path d="M2.35271 2.09084L3.87505 0.568337C3.8013 0.446057 3.69729 0.344843 3.57304 0.274459C3.4488 0.204074 3.30851 0.166894 3.16571 0.166504H0.83238C0.689584 0.166894 0.549297 0.204074 0.425051 0.274459C0.300806 0.344843 0.196793 0.446057 0.123047 0.568337L1.64538 2.09084C1.73931 2.18439 1.86648 2.23692 1.99905 2.23692C2.13162 2.23692 2.25879 2.18439 2.35271 2.09084Z" fill="#0257F5"/>
</g>
<defs>
<clipPath id="clip0_927_97">
<rect width="4" height="4" fill="white"/>
</clipPath>
</defs>
</svg>
