<svg width="4" height="4" viewBox="0 0 4 4" fill="none" xmlns="http://www.w3.org/2000/svg">
<g clip-path="url(#clip0_927_112)">
<path d="M4 2.01221C4 3.01037 3.26767 3.83787 2.31167 3.98804V2.59421H2.7765L2.865 2.01754H2.31167V1.64337C2.31167 1.48554 2.389 1.33187 2.63667 1.33187H2.88817V0.840874C2.88817 0.840874 2.65983 0.801874 2.44167 0.801874C1.986 0.801874 1.68833 1.07804 1.68833 1.57787V2.01737H1.18183V2.59404H1.68833V3.98787C0.7325 3.83754 0 3.01021 0 2.01221C0 0.907707 0.8955 0.012207 2 0.012207C3.1045 0.012207 4 0.90754 4 2.01221Z" fill="#0257F5"/>
</g>
<defs>
<clipPath id="clip0_927_112">
<rect width="4" height="4" fill="white"/>
</clipPath>
</defs>
</svg>
