<svg width="99" height="84" viewBox="0 0 99 84" fill="none" xmlns="http://www.w3.org/2000/svg">
<g opacity="0.08">
<path d="M44.2408 44.7538H67.53C73.6669 44.7538 78.4184 39.984 78.4184 33.8428C78.4184 28.0962 74.1152 23.6676 68.2394 23.1391C67.5702 23.0789 66.9612 22.711 66.6132 22.1356C64.0634 17.8676 59.854 15.292 54.895 15.292C48.2562 15.292 42.5811 20.2893 41.4234 26.9791C41.3029 27.6815 40.8278 28.2635 40.1719 28.5578C37.2072 29.9159 35.2598 32.7992 35.2598 36.3581C35.2598 41.2618 38.8535 44.7538 44.2341 44.7538H44.2408Z" fill="#0257F5"/>
<path d="M59.5124 62.4096C59.412 61.9413 59.5593 61.4463 59.9073 61.1185L69.2832 52.2813C70.18 51.4384 70.635 50.2008 70.5012 48.9832C70.4343 48.3611 69.8721 47.9262 69.2564 47.9998C68.6943 48.0667 68.1187 48.1002 67.5298 48.1002H44.2406C37.0999 48.1002 31.9201 43.1631 31.9201 36.3596C31.9201 31.8975 34.1888 28.0509 37.8762 25.977C38.1105 25.8432 38.2778 25.6292 38.338 25.3683C38.6726 23.95 39.1745 22.592 39.8371 21.3142C40.0111 20.9731 39.7568 20.5851 39.3753 20.5984C38.1038 20.6453 36.8992 21.254 36.1295 22.2909C35.9087 22.592 35.5205 22.7057 35.1792 22.5652C34.075 22.1103 31.7729 21.1604 30.5883 20.672C30.1667 20.4981 29.9191 20.0766 29.9124 19.6217C29.9057 18.6116 29.5042 17.6282 28.7814 16.8923C27.8712 15.9624 26.5596 15.541 25.2813 15.7617L14.2056 17.6817C13.2352 17.8489 12.3652 18.3774 11.7562 19.1534L6.78382 25.5556C6.78382 25.5556 6.75035 25.6024 6.73028 25.6292L0.673747 34.1854C0.178517 34.8811 -0.0557134 35.7307 0.0112095 36.5803L0.640286 44.7686C0.707209 45.6584 1.10205 46.4946 1.74451 47.1168L6.72358 51.9468C8.94543 54.1009 12.0774 55.004 15.109 54.3484L21.5069 52.9703C23.3071 52.5823 25.1542 53.1309 26.4525 54.4354L28.1858 56.1747C28.3799 56.3754 28.5204 56.623 28.5739 56.8972L30.6151 67.3534C30.7289 67.9488 30.6753 68.5709 30.4478 69.1329L28.3397 74.4512C28.1055 75.0399 28.1724 75.7022 28.5204 76.2374L31.7996 81.2614C31.9469 81.4889 32.0606 81.7297 32.1476 81.9839L35.8351 92.895C36.1831 93.9319 37.1602 94.6276 38.251 94.6276H44.5618C45.3315 94.6276 46.0542 94.2798 46.5428 93.6844L52.78 86.0179C53.4894 85.1415 53.9444 84.0845 54.085 82.9673L54.7207 77.8764C54.7877 77.3345 55.0286 76.8261 55.4101 76.4314L60.5029 71.1465C60.978 70.6514 61.1788 69.949 61.0316 69.28L59.5191 62.4096H59.5124Z" fill="black"/>
<path d="M88.7163 32.5391L92.0892 35.8773C92.7852 36.5731 92.7852 37.717 92.0892 38.3927C91.3932 39.0884 90.2421 39.1286 89.5662 38.4128L86.1732 35.0746C85.4772 34.3788 85.4772 33.2349 86.1732 32.5391C86.8692 31.8702 88.0203 31.8702 88.7163 32.5391ZM86.8692 22.5044C86.8692 25.5282 85.591 28.2777 83.5431 30.2378C82.7936 30.9537 81.5689 30.5924 81.3012 29.5889C79.9427 24.5248 75.5592 20.8119 69.9511 20.0225C69.5562 19.969 69.2015 19.7483 68.9807 19.4205C68.4654 18.6712 67.9032 17.9688 67.2875 17.3199C67.0935 17.1125 67.0466 16.7981 67.2072 16.5572C69.1413 13.6739 72.4339 11.754 76.1281 11.754C81.9972 11.754 86.8692 16.6308 86.8692 22.5044ZM98.6276 22.5044C98.6276 23.5012 97.8245 24.304 96.8474 24.304H92.1294C91.072 24.304 90.1551 23.3273 90.3559 22.19C90.5098 21.307 91.3531 20.7049 92.2565 20.7049H96.8541C97.8312 20.7049 98.6343 21.5478 98.6343 22.5044H98.6276ZM92.0825 6.6162C92.7785 7.31194 92.7785 8.48265 92.0825 9.1717L88.7364 12.4898C88.0203 13.2056 86.8692 13.1856 86.1732 12.4898C85.4772 11.7941 85.4772 10.6501 86.1732 9.97447L89.5662 6.6162C90.2421 5.92046 91.3932 5.92046 92.0892 6.6162H92.0825ZM62.7368 6.6162L66.0829 9.97447C66.7589 10.6234 66.7589 11.8142 66.0629 12.4898C65.3669 13.1856 64.2158 13.1856 63.5198 12.4898L60.1937 9.15163C59.4977 8.48265 59.5178 7.31194 60.2138 6.6162C60.9098 5.92046 62.0609 5.94722 62.7368 6.6162ZM77.935 1.80624V6.52923C77.935 7.48587 77.1118 8.30872 76.1281 8.30872C75.1443 8.30872 74.3212 7.48587 74.3212 6.52923V1.79955C74.3212 0.842913 75.1443 0 76.1281 0C77.1118 0 77.935 0.842913 77.935 1.79955V1.80624Z" fill="#F4BA40"/>
</g>
</svg>
