<svg width="4" height="4" viewBox="0 0 4 4" fill="none" xmlns="http://www.w3.org/2000/svg">
<g clip-path="url(#clip0_927_125)">
<path d="M2 0.360333C2.534 0.360333 2.59733 0.362333 2.80817 0.372C3.02617 0.382 3.25067 0.431667 3.4095 0.5905C3.56983 0.750833 3.618 0.973167 3.628 1.19183C3.63767 1.40267 3.63967 1.466 3.63967 2C3.63967 2.534 3.63767 2.59733 3.628 2.80817C3.61817 3.025 3.56733 3.25167 3.4095 3.4095C3.24917 3.56983 3.027 3.618 2.80817 3.628C2.59733 3.63767 2.534 3.63967 2 3.63967C1.466 3.63967 1.40267 3.63767 1.19183 3.628C0.976667 3.61817 0.747 3.56617 0.5905 3.4095C0.431 3.25 0.382 3.0255 0.372 2.80817C0.362333 2.59733 0.360333 2.534 0.360333 2C0.360333 1.466 0.362333 1.40267 0.372 1.19183C0.381833 0.975833 0.433167 0.747833 0.5905 0.5905C0.7505 0.4305 0.973667 0.382 1.19183 0.372C1.40267 0.362333 1.466 0.360333 2 0.360333ZM2 0C1.45683 0 1.38867 0.00233333 1.17533 0.012C0.866167 0.0261667 0.559167 0.112167 0.335667 0.335667C0.111333 0.56 0.0261667 0.866333 0.012 1.17533C0.00233333 1.38867 0 1.45683 0 2C0 2.54317 0.00233333 2.61133 0.012 2.82467C0.0261667 3.1335 0.1125 3.44133 0.335667 3.66433C0.559833 3.8885 0.866667 3.97383 1.17533 3.988C1.38867 3.99767 1.45683 4 2 4C2.54317 4 2.61133 3.99767 2.82467 3.988C3.13367 3.97383 3.441 3.88767 3.66433 3.66433C3.88883 3.43983 3.97383 3.13367 3.988 2.82467C3.99767 2.61133 4 2.54317 4 2C4 1.45683 3.99767 1.38867 3.988 1.17533C3.97383 0.866167 3.88767 0.559 3.66433 0.335667C3.4405 0.111833 3.13283 0.026 2.82467 0.012C2.61133 0.00233333 2.54317 0 2 0Z" fill="#0257F5"/>
<path d="M1.99966 0.973145C1.43249 0.973145 0.972656 1.43298 0.972656 2.00014C0.972656 2.56731 1.43249 3.02714 1.99966 3.02714C2.56682 3.02714 3.02666 2.56731 3.02666 2.00014C3.02666 1.43298 2.56682 0.973145 1.99966 0.973145ZM1.99966 2.66681C1.63149 2.66681 1.33299 2.36831 1.33299 2.00014C1.33299 1.63198 1.63149 1.33348 1.99966 1.33348C2.36782 1.33348 2.66632 1.63198 2.66632 2.00014C2.66632 2.36831 2.36782 2.66681 1.99966 2.66681Z" fill="#0257F5"/>
<path d="M3.06813 1.17238C3.20067 1.17238 3.30813 1.06493 3.30813 0.932383C3.30813 0.799834 3.20067 0.692383 3.06813 0.692383C2.93558 0.692383 2.82812 0.799834 2.82812 0.932383C2.82812 1.06493 2.93558 1.17238 3.06813 1.17238Z" fill="#0257F5"/>
</g>
<defs>
<clipPath id="clip0_927_125">
<rect width="4" height="4" fill="white"/>
</clipPath>
</defs>
</svg>
