<svg width="4" height="4" viewBox="0 0 4 4" fill="none" xmlns="http://www.w3.org/2000/svg">
<g clip-path="url(#clip0_927_116)">
<path d="M3.83271 3.59707H3.87055L3.79805 3.48741C3.84238 3.48741 3.86588 3.45924 3.86621 3.42474C3.86621 3.42341 3.86621 3.42191 3.86605 3.42057C3.86605 3.37357 3.83771 3.35107 3.77955 3.35107H3.68555V3.59707H3.72088V3.48991H3.76438L3.83271 3.59707ZM3.76188 3.46207H3.72088V3.37891H3.77288C3.79971 3.37891 3.83038 3.38324 3.83038 3.41841C3.83038 3.45874 3.79955 3.46207 3.76188 3.46207Z" fill="#0257F5"/>
<path d="M2.88183 3.17873H2.38067V2.3939C2.38067 2.20673 2.37733 1.9659 2.12 1.9659C1.859 1.9659 1.819 2.16973 1.819 2.3804V3.17873H1.318V1.56473H1.79917V1.78523H1.80583C1.904 1.61756 2.08633 1.5174 2.2805 1.52456C2.7885 1.52456 2.882 1.85873 2.882 2.29323L2.88183 3.17873ZM0.7525 1.34406C0.591833 1.34406 0.461667 1.2139 0.461667 1.05323C0.461667 0.892565 0.591833 0.762398 0.7525 0.762398C0.913167 0.762398 1.04333 0.892565 1.04333 1.05323C1.04333 1.2139 0.913167 1.34406 0.7525 1.34406ZM1.003 3.17873H0.501333V1.56473H1.003V3.17873ZM3.13167 0.297064H0.2495C0.113333 0.295564 0.00166667 0.404731 0 0.540898V3.4349C0.00166667 3.57123 0.113333 3.6804 0.2495 3.6789H3.13167C3.26817 3.68056 3.38033 3.5714 3.38217 3.4349V0.540731C3.38017 0.404231 3.268 0.295064 3.13167 0.296898" fill="#0257F5"/>
<path d="M3.76741 3.2417C3.64008 3.24287 3.53774 3.3472 3.53908 3.47453C3.54024 3.60187 3.64458 3.7042 3.77191 3.70287C3.89924 3.7017 4.00158 3.59737 4.00024 3.47003C3.99908 3.34437 3.89741 3.24287 3.77191 3.2417H3.76741ZM3.77274 3.67637C3.66108 3.6782 3.56374 3.58937 3.56191 3.4777C3.56008 3.36603 3.64908 3.27403 3.76074 3.2722C3.87241 3.27037 3.96441 3.35937 3.96624 3.47103C3.96624 3.4722 3.96624 3.4732 3.96624 3.47437C3.96858 3.58353 3.88191 3.67403 3.77274 3.67637H3.76758H3.77274Z" fill="#0257F5"/>
</g>
<defs>
<clipPath id="clip0_927_116">
<rect width="4" height="4" fill="white"/>
</clipPath>
</defs>
</svg>
