<svg width="4" height="4" viewBox="0 0 4 4" fill="none" xmlns="http://www.w3.org/2000/svg">
<g clip-path="url(#clip0_927_106)">
<path d="M2.00065 0C1.55877 0.000485266 1.13513 0.176236 0.822676 0.488691C0.51022 0.801147 0.33447 1.22479 0.333984 1.66667C0.333984 2.547 1.73398 3.7555 1.89298 3.8905L2.00065 3.9815L2.10832 3.8905C2.26732 3.7555 3.66732 2.547 3.66732 1.66667C3.66683 1.22479 3.49108 0.801147 3.17863 0.488691C2.86617 0.176236 2.44253 0.000485266 2.00065 0ZM2.00065 2.5C1.83583 2.5 1.67472 2.45113 1.53768 2.35956C1.40063 2.26799 1.29382 2.13784 1.23075 1.98557C1.16768 1.8333 1.15118 1.66574 1.18333 1.50409C1.21548 1.34244 1.29485 1.19395 1.4114 1.07741C1.52794 0.960867 1.67642 0.8815 1.83808 0.849346C1.99973 0.817191 2.16728 0.833694 2.31955 0.896767C2.47183 0.95984 2.60197 1.06665 2.69354 1.20369C2.78511 1.34073 2.83398 1.50185 2.83398 1.66667C2.83372 1.8876 2.74584 2.09941 2.58961 2.25563C2.43339 2.41185 2.22158 2.49974 2.00065 2.5Z" fill="#0257F5"/>
<path d="M2 2.1665C2.27614 2.1665 2.5 1.94265 2.5 1.6665C2.5 1.39036 2.27614 1.1665 2 1.1665C1.72386 1.1665 1.5 1.39036 1.5 1.6665C1.5 1.94265 1.72386 2.1665 2 2.1665Z" fill="#0257F5"/>
</g>
<defs>
<clipPath id="clip0_927_106">
<rect width="4" height="4" fill="white"/>
</clipPath>
</defs>
</svg>
