<svg width="4" height="4" viewBox="0 0 4 4" fill="none" xmlns="http://www.w3.org/2000/svg">
<g clip-path="url(#clip0_927_102)">
<path d="M3.90233 2.68167C3.90233 2.68167 2.44667 2.02 2.4415 2.01833C2.32017 1.977 2.1885 2.0075 2.09783 2.09817C2.00717 2.18883 1.97667 2.3205 2.02417 2.45667L2.6815 3.9025C2.708 3.961 2.76583 3.999 2.83017 4.00017H2.83333C2.89633 4.00017 2.95417 3.9645 2.9825 3.908L3.291 3.291L3.908 2.9825C3.9655 2.95367 4.00133 2.89467 4.00017 2.83033C3.999 2.76617 3.961 2.70833 3.9025 2.68167H3.90233ZM3.09217 3.01767C3.06 3.03383 3.03367 3.06 3.01767 3.09217L2.84033 3.44683L2.333 2.33417L3.4465 2.8405L3.09233 3.0175L3.09217 3.01767ZM2.152 3.66C2.12333 3.6625 2.0945 3.66433 2.06533 3.6655C1.954 3.55533 1.66367 3.24583 1.46133 2.8335H1.58333C1.67533 2.8335 1.75 2.759 1.75 2.66683C1.75 2.57467 1.67533 2.50017 1.58333 2.50017H1.32833C1.27983 2.3415 1.25 2.1735 1.25 2.00017C1.25 1.82683 1.28 1.659 1.32867 1.50017H2.6715C2.69117 1.56467 2.70783 1.63067 2.72067 1.698C2.738 1.7885 2.8255 1.84817 2.9155 1.8305C3.00583 1.81333 3.06517 1.726 3.048 1.63567C3.03933 1.58983 3.029 1.54467 3.0175 1.50017H3.583C3.58517 1.50017 3.5875 1.50017 3.58967 1.50017C3.6395 1.65817 3.66633 1.82617 3.66633 2.00033C3.66633 2.0515 3.664 2.102 3.6595 2.152C3.65133 2.24367 3.71883 2.32467 3.8105 2.333C3.9025 2.342 3.98333 2.27367 3.9915 2.182C3.99683 2.12217 3.99967 2.0615 3.99967 2.00033C4 0.897167 3.10283 0 2 0C0.897167 0 0 0.897167 0 2C0 3.10283 0.897166 4 1.99983 4C2.061 4 2.1215 3.99717 2.18117 3.99183C2.27283 3.98367 2.34067 3.90283 2.3325 3.811C2.32433 3.7195 2.24367 3.65183 2.15183 3.65983L2.152 3.66ZM0.982 2.50017H0.416667C0.4145 2.50017 0.412333 2.50017 0.41 2.50017C0.360167 2.34217 0.333333 2.17417 0.333333 2C0.333333 1.82583 0.360167 1.65783 0.41 1.49983C0.412167 1.49983 0.414333 1.49983 0.416667 1.49983H0.982C0.941167 1.659 0.916667 1.82633 0.916667 1.99983C0.916667 2.17333 0.941 2.34067 0.982 2.49983V2.50017ZM1.46217 1.16683C1.63233 0.820667 1.86467 0.546167 2.00033 0.402167C2.13617 0.546 2.3685 0.82 2.53867 1.16683H1.46217ZM3.443 1.16683H2.905C2.77317 0.8525 2.59033 0.5855 2.433 0.390667C2.86283 0.5065 3.2245 0.790167 3.443 1.16683ZM1.56667 0.390667C1.40933 0.5855 1.22633 0.8525 1.09467 1.16667H0.557C0.775333 0.79 1.13683 0.506333 1.56667 0.390667ZM0.557 2.83333H1.09467C1.22633 3.14767 1.40933 3.4145 1.56667 3.60933C1.137 3.4935 0.7755 3.20983 0.557 2.83333Z" fill="#0257F5"/>
</g>
<defs>
<clipPath id="clip0_927_102">
<rect width="4" height="4" fill="white"/>
</clipPath>
</defs>
</svg>
